<?xml version="1.0" encoding="UTF-8"?>
<!DOCTYPE svg PUBLIC "-//W3C//DTD SVG 1.1//EN" "http://www.w3.org/Graphics/SVG/1.1/DTD/svg11.dtd">
<!-- Creator: CorelDRAW (Evaluation Version) -->
<svg xmlns="http://www.w3.org/2000/svg" xml:space="preserve" width="43.3492mm" height="43.3492mm" version="1.1" style="shape-rendering:geometricPrecision; text-rendering:geometricPrecision; image-rendering:optimizeQuality; fill-rule:evenodd; clip-rule:evenodd"
viewBox="0 0 4334.92 4334.92"
 xmlns:xlink="http://www.w3.org/1999/xlink"
 xmlns:xodm="http://www.corel.com/coreldraw/odm/2003">
 <defs>
  <style type="text/css">
   <![CDATA[
    .fil0 {fill:#F69F2C}
    .fil2 {fill:#EB3E35}
    .fil1 {fill:#1B2B40}
   ]]>
  </style>
 </defs>
 <g id="Layer_x0020_1">
  <metadata id="CorelCorpID_0Corel-Layer"/>
  <g id="_604216080">
   <path class="fil0" d="M1707.45 853.49l-62.59 -0.69c-54.88,9.72 -189.14,2.27 -255.28,2.33 -95.56,0.08 -154.94,-3.89 -215.75,52.07 -57.37,52.78 -65.01,103.1 -64.43,196.66 0.57,88.97 0.22,177.51 0.05,266.43l126.1 0.91c49.67,-71.78 119.22,-192.87 167.47,-272.39 16.68,-27.51 18.92,-22.87 52.87,-22.42 23.81,0.31 47.62,0.16 71.43,0.23 146.26,0.43 461.6,5.8 589.37,-1.17 63.88,-162.74 274.16,-118.82 274.36,37.9 0.19,143.58 -211.17,200.79 -274.07,27.94l-660.91 2.2c-14.51,16.93 -34.22,53.27 -45.43,71.88 -28.06,46.59 -113.39,195.58 -135.05,219.99l-165.84 0.91 -1.86 309.98 -0.15 58.73 1.01 322.74c22.4,1.91 55.85,5.72 71.64,-3.19l256.69 -445.08c55.56,-14.01 270.39,9.85 297.24,-7.19 21.42,-18.27 -12.82,-237.05 13.1,-243.85 1.04,-0.27 2.7,-0.95 4.02,-1.24l564.32 -1.85c96.73,-0.07 173.78,-2.43 241.74,45.18 113.2,79.29 127.86,296.27 -9.7,387.53 -70.09,46.5 -138.88,46.97 -236.79,47.02 -113.87,0.06 -485.66,5.62 -569.43,-1.33l-1.92 -163.11 -255.09 0.35c-8.48,3.38 -109.68,184.74 -121.27,205.33 -12.76,22.66 -116.58,200.06 -116.98,203.46 -0.73,6.32 230.09,402.41 238.26,405.69l254.89 -1.52 4.55 -121.79c95.18,-6.64 212.92,-0.88 310.51,-0.75 104.5,0.14 208.98,-0.67 313.47,-0.56 117.26,0.12 174.08,2.37 255.71,55.86 137.5,90.1 140.53,329.92 -1.58,424.38 -81.79,54.36 -142.91,52.94 -258.88,53.13 -104.5,0.18 -208.96,0.13 -313.47,0.41 -87.4,0.24 -224.94,8.63 -306.46,-0.84 -5.08,-30.32 -6.19,-230.33 3.6,-244.03 15.62,-9.42 366.4,-8.17 410.47,-3.49 20.53,33.46 14.32,48.15 50.84,76.59 84.8,66.02 221.44,8.1 218.99,-112.21 -1.47,-72.09 -60.8,-128.41 -125.64,-132.2 -95.67,-5.6 -122.26,62.45 -145.36,105.36l-412.22 -0.46 -2.95 -33.95 -303.97 -1.69 -222.89 -384.42c-7.44,-4.58 -24.07,-33.87 -28.38,-42.68l-76.24 1.71 -0.53 292.37 0.61 63.61c9.52,33.49 0.9,298.6 -0.53,352.56 4.3,86.26 0.77,181.82 0.48,269.12 -0.29,85.58 -10.23,177.51 29.5,241.45 87.04,140.08 263.88,97.15 444.06,100.62l64.45 0.33 330.88 -1.36 1.02 159.49c-30.04,16.41 -49.45,20.39 -73.14,49.31 -65.8,80.3 -16.4,223.48 105.27,224.45 75.61,0.6 129.47,-50.11 137.69,-119.22 14.14,-118.91 -92.8,-142.15 -101.07,-154.81l-4.28 -15.85c-1.91,-15.48 -2.65,-131.94 4.74,-138.72 28.1,-12.25 310.82,-5.01 365.31,-3.42l214.67 -9.03c105.94,-0.86 273.27,-54.41 355.1,-93.51 98.7,-47.16 186.74,-106.77 255.17,-195.25 131.1,-169.51 184.66,-480.55 99.35,-719.8 -13.65,12.78 -31.07,55.48 -40.7,75.87 -11.24,23.8 -27.25,54.96 -36.91,81.19l-227.37 1.13c-51.54,96.8 -107.68,209.51 -159.8,305.38 -28.43,52.29 -143.05,273.75 -163.09,301.64l-330.51 1.47c-24.38,42.95 -42.68,113.83 -154.66,105.47 -158.16,-11.82 -167,-251.09 1.75,-274.12 73.48,-10.02 125.07,41.62 151.19,104.26l292.72 0.97c103.55,-180.69 206.47,-392.49 308.46,-579.95 9.2,-16.93 18.09,-24.67 23.93,-36.94 -12.03,-28.8 -40.2,-67.46 -56,-94.72l-172.54 -287.98 -459.03 -0.7c-19.72,38.5 -21.13,52.18 -52.54,74.28 -26.49,18.63 -62.41,30.43 -104,24.19 -65.26,-9.8 -120.93,-74.78 -115.75,-147.22 8.39,-117 143.73,-166.25 227.58,-97.59 28.43,23.29 35.13,49.3 50.39,81.79l326.79 1.57c17.41,-17.79 147.34,-248.45 173.84,-291.59 62.17,-101.15 53.13,-72.52 52.64,-183.46 -1.12,-250.41 -22.47,-241.38 64.7,-233.77 8.35,42.41 2.58,172.86 2.59,224.27 0.02,120.54 10.84,100.04 -42.52,189.74 -26.38,44.34 -163.01,267.97 -167.2,295.33l77.44 0.4c17.7,19.3 249.64,407.99 271,449.73l137.82 1.59c8.81,-13.93 71.25,-150.93 75.95,-168.34 5.86,-19.53 9.99,-10.27 0.84,-27.97 -5.19,-10.03 -9.42,-16.08 -16.87,-26.13 -21.9,-54.96 -132.03,-145.67 -185.19,-181.04 -14.2,-9.45 -66.57,-33.63 -72.25,-48.85 36.23,-34.23 92.56,-53.47 168.15,-156.58 8.61,-15.08 16.97,-25.34 25.93,-41.64 6.17,-11.22 14.55,-28.42 21.3,-40.13 55.62,-96.8 74.93,-264.96 60.97,-393.3 -17.37,-159.83 -80.76,-294.54 -177.8,-404.82 -9.14,-10.39 -17.25,-19.89 -26.78,-30.3 -36.31,-39.63 -3.49,-126.02 -129.54,-164.86 -123.53,-38.06 -129.13,23.39 -186.64,2.08 -43.93,-16.26 -146.23,-36.31 -199,-39.63 -83.79,-5.32 -151.48,-9.2 -238.11,-9.53 -69.87,-0.27 -181.05,7.14 -245.48,-0.5 -7.16,-25.65 -7.15,-103.7 1.05,-124.01 139.09,-28.67 142.27,-266.86 -31.02,-267.25 -158.11,-0.36 -194.84,213.85 -35.5,267.16l0.39 122.32 -321.49 -0.05z"/>
   <path class="fil1" d="M1180.39 2124.53c-9.22,26.63 -10.18,36.48 4.36,62.7 7.89,14.23 19.84,33.13 29.44,46.03l222.89 384.42 303.97 1.69 2.95 33.95 412.22 0.46c23.1,-42.91 49.69,-110.96 145.36,-105.36 64.84,3.79 124.17,60.11 125.64,132.2 2.45,120.31 -134.19,178.23 -218.99,112.21 -36.52,-28.44 -30.31,-43.13 -50.84,-76.59 -44.07,-4.68 -394.85,-5.93 -410.47,3.49 -9.79,13.7 -8.68,213.71 -3.6,244.03 81.52,9.47 219.06,1.08 306.46,0.84 104.51,-0.28 208.97,-0.23 313.47,-0.41 115.97,-0.19 177.09,1.23 258.88,-53.13 142.11,-94.46 139.08,-334.28 1.58,-424.38 -81.63,-53.49 -138.45,-55.74 -255.71,-55.86 -104.49,-0.11 -208.97,0.7 -313.47,0.56 -97.59,-0.13 -215.33,-5.89 -310.51,0.75l-4.55 121.79 -254.89 1.52c-8.17,-3.28 -238.99,-399.37 -238.26,-405.69 0.4,-3.4 104.22,-180.8 116.98,-203.46 11.59,-20.59 112.79,-201.95 121.27,-205.33l255.09 -0.35 1.92 163.11c83.77,6.95 455.56,1.39 569.43,1.33 97.91,-0.05 166.7,-0.52 236.79,-47.02 137.56,-91.26 122.9,-308.24 9.7,-387.53 -67.96,-47.61 -145.01,-45.25 -241.74,-45.18l-564.32 1.85c-1.32,0.29 -2.98,0.97 -4.02,1.24 -25.92,6.8 8.32,225.58 -13.1,243.85 -26.85,17.04 -241.68,-6.82 -297.24,7.19l-256.69 445.08z"/>
   <path class="fil2" d="M1109.12 2900.83c1.43,-53.96 10.05,-319.07 0.53,-352.56l-0.05 288.79c-45.79,4.82 -465.6,5.06 -491.54,-2.15l-2.29 -444.87 -50.16 -2.76c0.88,55.46 6.98,428.43 -2.46,448.95 -25.01,-7.22 -7.84,-32.43 -55.04,-72.05 -24.22,-20.32 -59.13,-33.52 -96.83,-30.77 -162.22,11.87 -164.72,254.14 -4.64,268.93 122.08,11.28 130.04,-89.89 156.51,-101.07 9.69,22.62 0.29,169.1 5.59,210.48 18.65,145.67 96.27,173.92 208.42,237.74 52.84,30.06 93.22,52.75 142,82.37 48.82,29.64 543.76,324.37 558.71,325.41 7.01,-63.33 9.51,-47.57 -99.51,-110.93 -50.22,-29.19 -90.64,-54.75 -133.73,-79.57l-407.52 -238.46c-47.81,-28.39 -95.43,-52.94 -137.92,-80.78 -45.63,-29.88 -76.16,-74.33 -81.85,-131.1 -3.9,-38.94 -4.62,-177.79 1.34,-213.99l490.44 -1.61z"/>
   <path class="fil1" d="M1109.45 1370.29l-0.49 61.53 -387.86 2.21c-14.6,4.37 -0.41,-3.65 -9.69,5.18l397.92 1.9c0,31.59 4.3,263.42 -3.3,294.58 -2.18,8.9 -15.15,9.1 -29.76,9.7l-200.31 -0.35 231.93 1.21 1.86 -309.98 165.84 -0.91c21.66,-24.41 106.99,-173.4 135.05,-219.99 11.21,-18.61 30.92,-54.95 45.43,-71.88l660.91 -2.2c62.9,172.85 274.26,115.64 274.07,-27.94 -0.2,-156.72 -210.48,-200.64 -274.36,-37.9 -127.77,6.97 -443.11,1.6 -589.37,1.17 -23.81,-0.07 -47.62,0.08 -71.43,-0.23 -33.95,-0.45 -36.19,-5.09 -52.87,22.42 -48.25,79.52 -117.8,200.61 -167.47,272.39l-126.1 -0.91z"/>
   <path class="fil2" d="M3675.87 2581l0.12 370.47c-0.22,287.87 10.41,245.26 -309.8,433.37 -83.09,48.81 -758.84,445.32 -774.73,464.3l18.28 37.25c16.91,-1.92 819.47,-482.92 911.93,-536.58 221.87,-128.8 203.71,-176.75 203.54,-398.34 -0.1,-138.34 4.06,-394.7 -1.55,-514 -59.42,-3.98 -47.51,-11.29 -47.79,143.53z"/>
   <path class="fil2" d="M1109.57 2192.29l76.24 -1.71c4.31,8.81 20.94,38.1 28.38,42.68 -9.6,-12.9 -21.55,-31.8 -29.44,-46.03 -14.54,-26.22 -13.58,-36.07 -4.36,-62.7 -15.79,8.91 -49.24,5.1 -71.64,3.19l-607.35 1.38c-20.33,-40.08 -44.96,-114.2 -146.59,-102.73 -159.86,18.05 -153.79,253.44 -0.9,266.83 89.48,7.83 123.25,-42.29 151.33,-102.55 74.43,-1.9 567.47,-5.9 604.33,1.64z"/>
   <path class="fil2" d="M2095.07 731.31c-8.2,20.31 -8.21,98.36 -1.05,124.01 64.43,7.64 175.61,0.23 245.48,0.5 86.63,0.33 154.32,4.21 238.11,9.53l-101.95 -13.12 -0.59 -480.99c182.79,-80.94 107.65,-272.7 -26.25,-273.87 -119.27,-1.04 -176.47,132.08 -111.54,220.34 24.15,32.84 41.81,35.77 74.47,53.28l0.18 481.12 -317.44 2.12 0.58 -122.92z"/>
   <path class="fil2" d="M3236.4 1896.18c-6.75,11.71 -15.13,28.91 -21.3,40.13 -8.96,16.3 -17.32,26.56 -25.93,41.64 20.27,-11.71 496.96,-8.52 550.97,-4.29 70.03,164.36 280.26,110.35 270.9,-42.99 -6.8,-111.54 -137.63,-169.11 -223.17,-95.65 -32.92,28.27 -32.61,53.93 -51.98,75.54l-493.96 1.16c-6.57,-6.6 -4.75,6.89 -5.53,-15.54z"/>
   <path class="fil2" d="M1644.86 852.8l62.59 0.69 -0.73 -482.13c57.38,-27.33 111.22,-65.9 104.75,-151.1 -12.29,-161.84 -262.18,-162.31 -274.34,0.37 -8.08,108.26 81.2,132.24 107.14,151.79l0.59 480.38z"/>
   <path class="fil2" d="M3278.46 2364.42c7.45,10.05 11.68,16.1 16.87,26.13 9.15,17.7 5.02,8.44 -0.84,27.97 10.77,-10.04 -1.19,-2.13 16.86,-6.43 7.71,21.57 23.04,43.23 32.61,62.05 10.51,-21.89 53.11,-127.92 66.16,-133.75 31.48,-9.09 280.66,-5.35 332.03,-3.02 40.49,154.38 265.76,129.82 268.34,-27.1 1.19,-71.86 -52.48,-128.73 -118.32,-137.62 -81.66,-11.04 -126.47,40.53 -152.24,102.71 -61.24,3.29 -347.66,-6.47 -375.33,5.08 -11.17,10.43 -10.07,11.99 -16.25,26.53 -8.44,19.83 -29.57,74.35 -44.68,85.75 -16.34,-12.5 -11.77,-17.41 -25.21,-28.3z"/>
   <path class="fil2" d="M2572.74 533.83c50.15,36.05 121.93,73.72 178,106.12l728.13 426.5c205.99,120.46 197.21,106.22 197.15,384.14l-0.74 214.21c1.86,27.82 18.33,21.97 47.32,19.45 10.24,-44.74 2.26,-227.11 2.21,-285.91 -0.1,-108.17 6.86,-169.43 -46.58,-246.7 -41.56,-60.1 -109.3,-87.17 -170.35,-123.8 -78.97,-47.38 -903.76,-537.42 -928.92,-539.75l-6.22 45.74z"/>
   <path class="fil2" d="M2414.03 3512.22l0.45 397.25c-18.22,13.57 -115.99,46.13 -106.89,148.17 14.26,160.04 243.14,175.61 272.06,12.84 7.05,-39.65 -4.69,-73.35 -23.87,-100.11 -25.1,-35.02 -43.33,-38.29 -75.77,-59.48l-1.49 -399.05c39.9,0.21 120.34,0.54 150.18,-8.65l-214.67 9.03z"/>
   <path class="fil2" d="M1647.61 3512.35l-64.45 -0.33 2.49 400.67c-59.2,26.52 -111.98,65.87 -104.87,150.37 13.28,157.72 251.56,165.87 271.07,4.28 12.92,-107.04 -69.65,-135.54 -104.26,-156.72l0.02 -398.27z"/>
   <path class="fil2" d="M711.41 1439.21c9.28,-8.83 -4.91,-0.81 9.69,-5.18l387.86 -2.21 0.49 -61.53 -401.38 0.91c-61.77,-162.39 -268.97,-115.11 -269.02,31.96 -0.06,143 193.96,191.26 260.6,55.27 2.34,-4.8 1.8,-4.68 4.51,-9.38l7.25 -9.84z"/>
   <path class="fil1" d="M3042.15 1122.72c-30.02,-4.11 -279.05,-3.58 -301.1,2.33 -3.3,62.48 -7.86,141.62 17.48,186.66 60.89,108.2 212.66,102 267.63,4.3 25.24,-44.84 21.37,-134.52 15.99,-193.29z"/>
   <path class="fil2" d="M1107.74 1804.98l0.15 -58.73 -231.93 -1.21c-69.33,-171.47 -271.67,-111.6 -270.28,33.34 1.15,119.44 139.73,171.14 222.8,103.63 32.07,-26.05 31.98,-48.61 51.87,-76.01l227.39 -1.02z"/>
   <path class="fil2" d="M1109.65 2548.27l-0.61 -63.61 -142.17 1.11c-16.79,-21.35 -43.73,-113.51 -146.79,-102.72 -162.62,17.01 -159.11,253.91 -5.06,268.66 104.33,9.98 129.06,-67.6 150.24,-104.03l144.39 0.59z"/>
   <path class="fil2" d="M582.81 1156.11c3.16,16.44 16.2,32.03 27.83,37.8 34.26,-14.43 89.85,-52.41 116.45,-68.08 125.88,-74.17 818.92,-480.08 825.25,-491.15 5.6,-13.33 2.27,-32.58 1.27,-51.38 -17.27,-0.98 -101.11,55.59 -119.35,66.57 -190.5,114.67 -419.24,254.77 -608.91,360.63 -42.68,23.82 -83.02,47.85 -122.34,72.18 -18.8,11.62 -38.68,22.78 -59.09,35.3 -17.55,10.77 -45.73,25.03 -61.11,38.13z"/>
   <path class="fil1" d="M2895.21 1072.38c-20.77,-12.3 -25.66,-29.89 -22.03,-63.66 3.98,-37.01 11.33,-8.42 9.61,-78.69 -83.59,-2.06 -137.6,46.44 -142.04,121.58 -2.94,49.76 -5.01,44.76 54.72,44.85l243.53 -0.56c42.05,-133.94 -111.81,-177.14 -126.51,-168.47 -9.5,5.6 -8.52,39.13 -5.36,51.07 5.21,19.66 13.48,11.76 12.42,49.51 -0.76,26.94 -5.11,35.27 -24.34,44.37z"/>
   <path class="fil0" d="M2225.58 1041.65c-94.49,39.42 -37.22,175.39 57.04,137.93 89.34,-35.5 36.08,-176.78 -57.04,-137.93z"/>
  </g>
 </g>
</svg>
